<?xml version="1.0" encoding="utf-8"?>
<!-- Generator: Adobe Illustrator 19.0.0, SVG Export Plug-In . SVG Version: 6.00 Build 0)  -->
<svg version="1.1" id="Capa_1" xmlns="http://www.w3.org/2000/svg" xmlns:xlink="http://www.w3.org/1999/xlink" x="0px" y="0px"
	 viewBox="160 -160 420 420" style="enable-background:new 160 -160 420 420;" xml:space="preserve">
<style type="text/css">
	.st0{fill:#00C0EF;}
	.st1{fill:#FFEBD4;}
	.st2{fill:#F442DF;}
</style>
<g>
	<path class="st0" d="M476.6-96.6c-28-28-65.2-43.4-104.8-43.4s-76.8,15.4-104.8,43.4c-17.1,17.1-28.2,36.3-33.1,57.3l92.7,92.7
		l92.7,92.7c20.9-4.9,40.2-16,57.3-33.1C534.4,55.3,534.4-38.8,476.6-96.6z"/>
	<path class="st1" d="M237.1,18.2c6.6,32.3,14,68.9-18.6,101.5l-29.8,29.8c-5.6,5.6-8.7,13-8.7,20.9c0,7.9,3.1,15.3,8.7,20.9
		s13,8.7,20.9,8.7s15.3-3.1,20.9-8.7l29.8-29.8c16.4-16.4,35.6-24.3,58.8-24.3c14.4,0,28.8,2.9,42.7,5.7c10.8,2.2,21,4.3,31.1,5.1
		L232-12.9C232.8-2.8,234.9,7.5,237.1,18.2z"/>
	<path class="st2" d="M560,200c0-22.1-17.9-40-40-40c-22.1,0-40,17.9-40,40s17.9,40,40,40C542.1,240,560,222.1,560,200z"/>
	<path d="M490.7-110.7c-31.8-31.8-74-49.3-119-49.3s-87.2,17.5-119,49.3c-21.4,21.4-34.7,45.9-39.6,72.9c0,0,0,0,0,0
		c-3.7,20.4,0.4,40.5,4.3,60c6.4,31.3,11.8,58.4-13.1,83.4l-29.8,29.8c-9.4,9.4-14.5,21.8-14.5,35s5.2,25.7,14.5,35
		c9.4,9.4,21.8,14.5,35,14.5c13.2,0,25.7-5.2,35-14.5l29.8-29.8c12.8-12.8,26.5-18.5,44.7-18.5c12.4,0,25.2,2.6,38.7,5.3
		c14,2.8,28.6,5.8,43.2,5.8c0,0,0,0,0,0c6,0,11.5-0.5,16.8-1.5c0,0,0,0,0,0c27-4.9,51.5-18.2,72.9-39.6
		C556.3,61.6,556.3-45.1,490.7-110.7z M419.3,146.2l-92.7-92.7l-92.7-92.7c4.9-20.9,16-40.2,33.1-57.3c28-28,65.2-43.4,104.8-43.4
		s76.8,15.4,104.8,43.4c57.8,57.8,57.8,151.9,0,209.7C459.5,130.2,440.2,141.3,419.3,146.2z M361.8,142.9
		c-13.9-2.8-28.3-5.7-42.7-5.7c-23.2,0-42.5,8-58.8,24.3l-29.8,29.8c-5.6,5.6-13,8.7-20.9,8.7c-7.9,0-15.3-3.1-20.9-8.7
		c-5.6-5.6-8.7-13-8.7-20.9s3.1-15.3,8.7-20.9l29.8-29.8c32.5-32.5,25.1-69.2,18.6-101.5c-2.2-10.7-4.3-21.1-5.1-31.1L392.9,148
		C382.8,147.2,372.5,145.1,361.8,142.9z"/>
	<path d="M520,140c-33.1,0-60,26.9-60,60s26.9,60,60,60s60-26.9,60-60S553.1,140,520,140z M480,200c0-22.1,17.9-40,40-40
		c22.1,0,40,17.9,40,40s-17.9,40-40,40C497.9,240,480,222.1,480,200z"/>
</g>
<g>
	<g>
		<path d="M342.5-69.7c-6.4,0-11.7,5.3-11.8,11.7c0,6.4,5.1,11.6,11.6,11.6c44.4-0.3,80.4,35.7,80,80.1c0,3.2,1.2,6.1,3.3,8.2
			c2.1,2.1,5,3.4,8.2,3.4c6.4,0,11.7-5.3,11.8-11.7C446.1-23.7,399.8-70.1,342.5-69.7z"/>
		<path d="M342.2-25.1c-6.4,0-11.7,5.3-11.8,11.7c0,6.4,5.1,11.6,11.6,11.6c19.9-0.1,35.9,15.9,35.8,35.8c0,3.2,1.2,6.1,3.3,8.2
			c2.1,2.1,5,3.4,8.2,3.4c6.4,0,11.7-5.3,11.7-11.7C401.3,1.1,374.9-25.3,342.2-25.1z"/>
		<ellipse transform="matrix(0.7075 -0.7067 0.7067 0.7075 75.8026 251.5457)" cx="341.8" cy="34.2" rx="15.6" ry="15.4"/>
		<path d="M491,33.3c0.5-82.2-65.9-148.8-148.2-148.3c-6.4,0-11.7,5.3-11.8,11.7c0,6.4,5.1,11.6,11.6,11.6
			c69.4-0.4,125.5,55.7,125,125.1c0,3.2,1.2,6.1,3.3,8.2c2.1,2.1,5,3.4,8.2,3.4C485.6,45,490.9,39.8,491,33.3z"/>
	</g>
</g>
</svg>
