<?xml version="1.0" encoding="iso-8859-1"?>
<!-- Generator: Adobe Illustrator 17.1.0, SVG Export Plug-In . SVG Version: 6.00 Build 0)  -->
<!DOCTYPE svg PUBLIC "-//W3C//DTD SVG 1.1//EN" "http://www.w3.org/Graphics/SVG/1.1/DTD/svg11.dtd">
<svg version="1.1" id="Capa_1" xmlns="http://www.w3.org/2000/svg" xmlns:xlink="http://www.w3.org/1999/xlink" x="0px" y="0px"
	 viewBox="0 0 420 420" style="enable-background:new 0 0 420 420;" xml:space="preserve">
<g>
	<path style="fill:#6ECCAE;" d="M316.574,63.429c-28.003-28.004-65.236-43.426-104.839-43.426
		c-39.603,0-76.835,15.422-104.839,43.426c-17.096,17.097-28.2,36.337-33.059,57.259l92.738,92.739l92.739,92.739
		c20.921-4.857,40.163-15.962,57.26-33.06C374.382,215.298,374.382,121.237,316.574,63.429z"/>
	<path style="fill:#FFEBD4;" d="M77.054,178.218c6.551,32.315,13.975,68.943-18.572,101.49L28.66,309.53
		c-5.584,5.584-8.66,13.009-8.66,20.906c0,7.898,3.076,15.322,8.66,20.906c5.584,5.584,13.009,8.66,20.907,8.66
		s15.322-3.076,20.907-8.66l29.822-29.822c16.357-16.356,35.593-24.309,58.808-24.309c14.383,0,28.771,2.917,42.686,5.736
		c10.752,2.18,21.034,4.263,31.078,5.056L71.991,147.126C72.787,157.166,74.886,167.52,77.054,178.218z"/>
	<path style="fill:#F7CF40;" d="M400,359.997c0-22.056-17.944-40-40-40s-40,17.944-40,40c0,22.056,17.944,40,40,40
		S400,382.053,400,359.997z"/>
	<path d="M330.717,49.286C298.935,17.505,256.68,0.003,211.735,0.003c-44.945,0-87.2,17.502-118.981,49.283
		c-21.393,21.394-34.729,45.91-39.639,72.868c0,0.001,0,0.003,0,0.004c-3.705,20.352,0.384,40.524,4.338,60.033
		c6.354,31.347,11.842,58.42-13.113,83.374l-29.822,29.822C5.156,304.749,0,317.196,0,330.436c0,13.24,5.156,25.688,14.518,35.049
		c9.362,9.361,21.809,14.517,35.049,14.517c13.239,0,25.687-5.156,35.049-14.517l29.822-29.822
		c12.76-12.761,26.536-18.451,44.666-18.451c12.376,0,25.169,2.593,38.713,5.338c14.041,2.846,28.559,5.789,43.196,5.79
		c0.003,0,0.006,0,0.009,0c5.956,0,11.46-0.475,16.825-1.452c0.001,0,0.001,0,0.002,0c26.958-4.909,51.474-18.245,72.868-39.638
		C396.323,221.643,396.323,114.893,330.717,49.286z M259.315,306.166l-92.739-92.739l-92.738-92.739
		c4.858-20.922,15.962-40.162,33.059-57.259c28.004-28.004,65.236-43.426,104.839-43.426c39.603,0,76.835,15.422,104.839,43.426
		c57.808,57.809,57.808,151.869,0,209.678C299.477,290.204,280.236,301.309,259.315,306.166z M201.79,302.948
		c-13.915-2.819-28.303-5.736-42.686-5.736c-23.215,0-42.451,7.952-58.808,24.309l-29.822,29.822
		c-5.584,5.584-13.009,8.66-20.907,8.66s-15.322-3.076-20.907-8.66c-5.584-5.584-8.66-13.009-8.66-20.906
		c0-7.897,3.076-15.322,8.66-20.906l29.823-29.822c32.547-32.547,25.123-69.175,18.572-101.49
		c-2.169-10.698-4.267-21.052-5.063-31.092l160.876,160.878C222.823,307.212,212.541,305.128,201.79,302.948z"/>
	<path d="M360,299.997c-33.084,0-60,26.916-60,60s26.916,60,60,60s60-26.916,60-60S393.084,299.997,360,299.997z M320,359.997
		c0-22.056,17.944-40,40-40s40,17.944,40,40c0,22.056-17.944,40-40,40S320,382.053,320,359.997z"/>
</g>
<g>
</g>
<g>
</g>
<g>
</g>
<g>
</g>
<g>
</g>
<g>
</g>
<g>
</g>
<g>
</g>
<g>
</g>
<g>
</g>
<g>
</g>
<g>
</g>
<g>
</g>
<g>
</g>
<g>
</g>
</svg>
